<svg width="248" height="56" viewBox="0 0 248 56" fill="none" xmlns="http://www.w3.org/2000/svg">
<mask id="path-1-outside-1_39_958" maskUnits="userSpaceOnUse" x="0" y="0" width="248" height="56" fill="black">
<rect fill="white" width="248" height="56"/>
<path fill-rule="evenodd" clip-rule="evenodd" d="M3 27.2254C3 13.8461 13.8461 3 27.2254 3H160.819C168.811 3 175.899 6.87012 180.311 12.8385C182.777 16.1737 186.333 18.8984 190.481 18.8984V18.8984C194.589 18.8984 198.123 16.2258 200.576 12.9299C205.06 6.90365 212.238 3 220.327 3C233.915 3 244.931 14.0156 244.931 27.604C244.931 41.1924 233.915 52.2079 220.327 52.2079C213.166 52.2079 206.721 49.1494 202.225 44.2676C199.018 40.7857 194.903 37.8246 190.17 37.8246V37.8246C185.544 37.8246 181.501 40.6623 178.297 43.9996C173.889 48.5922 167.687 51.4509 160.819 51.4509H27.2255C13.8461 51.4509 3 40.6048 3 27.2254Z"/>
</mask>
<path fill-rule="evenodd" clip-rule="evenodd" d="M3 27.2254C3 13.8461 13.8461 3 27.2254 3H160.819C168.811 3 175.899 6.87012 180.311 12.8385C182.777 16.1737 186.333 18.8984 190.481 18.8984V18.8984C194.589 18.8984 198.123 16.2258 200.576 12.9299C205.06 6.90365 212.238 3 220.327 3C233.915 3 244.931 14.0156 244.931 27.604C244.931 41.1924 233.915 52.2079 220.327 52.2079C213.166 52.2079 206.721 49.1494 202.225 44.2676C199.018 40.7857 194.903 37.8246 190.17 37.8246V37.8246C185.544 37.8246 181.501 40.6623 178.297 43.9996C173.889 48.5922 167.687 51.4509 160.819 51.4509H27.2255C13.8461 51.4509 3 40.6048 3 27.2254Z" fill="#E2FF3D"/>
<path d="M178.297 43.9996L176.133 41.9221L178.297 43.9996ZM200.576 12.9299L198.169 11.1389L200.576 12.9299ZM202.225 44.2676L200.018 46.2999L202.225 44.2676ZM180.311 12.8385L177.899 14.6219L180.311 12.8385ZM27.2254 0C12.1892 0 0 12.1892 0 27.2254H6C6 15.503 15.503 6 27.2254 6V0ZM160.819 0H27.2254V6H160.819V0ZM182.724 11.0551C177.77 4.35448 169.802 0 160.819 0V6C167.819 6 174.028 9.38575 177.899 14.6219L182.724 11.0551ZM202.982 14.7209C206.925 9.4226 213.226 6 220.327 6V0C211.249 0 203.195 4.38471 198.169 11.1389L202.982 14.7209ZM220.327 6C232.258 6 241.931 15.6724 241.931 27.604H247.931C247.931 12.3587 235.572 0 220.327 0V6ZM241.931 27.604C241.931 39.5355 232.258 49.2079 220.327 49.2079V55.2079C235.572 55.2079 247.931 42.8492 247.931 27.604H241.931ZM220.327 49.2079C214.04 49.2079 208.383 46.5262 204.431 42.2352L200.018 46.2999C205.058 51.7726 212.293 55.2079 220.327 55.2079V49.2079ZM160.819 54.4509C168.538 54.4509 175.51 51.2346 180.461 46.0772L176.133 41.9221C172.267 45.9498 166.837 48.4509 160.819 48.4509V54.4509ZM27.2255 54.4509H160.819V48.4509H27.2255V54.4509ZM0 27.2254C0 42.2616 12.1893 54.4509 27.2255 54.4509V48.4509C15.503 48.4509 6 38.9479 6 27.2254H0ZM190.17 34.8246C184.303 34.8246 179.52 38.3935 176.133 41.9221L180.461 46.0772C183.481 42.9311 186.784 40.8246 190.17 40.8246V34.8246ZM190.481 21.8984C195.938 21.8984 200.256 18.3852 202.982 14.7209L198.169 11.1389C195.99 14.0665 193.24 15.8984 190.481 15.8984V21.8984ZM204.431 42.2352C201.035 38.5478 196.172 34.8246 190.17 34.8246V40.8246C193.634 40.8246 197 43.0237 200.018 46.2999L204.431 42.2352ZM177.899 14.6219C180.631 18.3173 184.971 21.8984 190.481 21.8984V15.8984C187.695 15.8984 184.923 14.03 182.724 11.0551L177.899 14.6219Z" fill="white" mask="url(#path-1-outside-1_39_958)"/>
<mask id="path-3-outside-2_39_958" maskUnits="userSpaceOnUse" x="0" y="0" width="248" height="56" fill="black">
<rect fill="white" width="248" height="56"/>
<path fill-rule="evenodd" clip-rule="evenodd" d="M3 27.2254C3 13.8461 13.8461 3 27.2254 3H160.819C168.811 3 175.899 6.87012 180.311 12.8385C182.777 16.1737 186.333 18.8984 190.481 18.8984V18.8984C194.589 18.8984 198.123 16.2258 200.576 12.9299C205.06 6.90365 212.238 3 220.327 3C233.915 3 244.931 14.0156 244.931 27.604C244.931 41.1924 233.915 52.2079 220.327 52.2079C213.166 52.2079 206.721 49.1494 202.225 44.2676C199.018 40.7857 194.903 37.8246 190.17 37.8246V37.8246C185.544 37.8246 181.501 40.6623 178.297 43.9996C173.889 48.5922 167.687 51.4509 160.819 51.4509H27.2255C13.8461 51.4509 3 40.6048 3 27.2254Z"/>
</mask>
<path fill-rule="evenodd" clip-rule="evenodd" d="M3 27.2254C3 13.8461 13.8461 3 27.2254 3H160.819C168.811 3 175.899 6.87012 180.311 12.8385C182.777 16.1737 186.333 18.8984 190.481 18.8984V18.8984C194.589 18.8984 198.123 16.2258 200.576 12.9299C205.06 6.90365 212.238 3 220.327 3C233.915 3 244.931 14.0156 244.931 27.604C244.931 41.1924 233.915 52.2079 220.327 52.2079C213.166 52.2079 206.721 49.1494 202.225 44.2676C199.018 40.7857 194.903 37.8246 190.17 37.8246V37.8246C185.544 37.8246 181.501 40.6623 178.297 43.9996C173.889 48.5922 167.687 51.4509 160.819 51.4509H27.2255C13.8461 51.4509 3 40.6048 3 27.2254Z" fill="#E2FF3D"/>
<path d="M178.297 43.9996L176.133 41.9221L178.297 43.9996ZM200.576 12.9299L198.169 11.1389L200.576 12.9299ZM202.225 44.2676L200.018 46.2999L202.225 44.2676ZM180.311 12.8385L177.899 14.6219L180.311 12.8385ZM27.2254 0C12.1892 0 0 12.1892 0 27.2254H6C6 15.503 15.503 6 27.2254 6V0ZM160.819 0H27.2254V6H160.819V0ZM182.724 11.0551C177.77 4.35448 169.802 0 160.819 0V6C167.819 6 174.028 9.38575 177.899 14.6219L182.724 11.0551ZM202.982 14.7209C206.925 9.4226 213.226 6 220.327 6V0C211.249 0 203.195 4.38471 198.169 11.1389L202.982 14.7209ZM220.327 6C232.258 6 241.931 15.6724 241.931 27.604H247.931C247.931 12.3587 235.572 0 220.327 0V6ZM241.931 27.604C241.931 39.5355 232.258 49.2079 220.327 49.2079V55.2079C235.572 55.2079 247.931 42.8492 247.931 27.604H241.931ZM220.327 49.2079C214.04 49.2079 208.383 46.5262 204.431 42.2352L200.018 46.2999C205.058 51.7726 212.293 55.2079 220.327 55.2079V49.2079ZM160.819 54.4509C168.538 54.4509 175.51 51.2346 180.461 46.0772L176.133 41.9221C172.267 45.9498 166.837 48.4509 160.819 48.4509V54.4509ZM27.2255 54.4509H160.819V48.4509H27.2255V54.4509ZM0 27.2254C0 42.2616 12.1893 54.4509 27.2255 54.4509V48.4509C15.503 48.4509 6 38.9479 6 27.2254H0ZM190.17 34.8246C184.303 34.8246 179.52 38.3935 176.133 41.9221L180.461 46.0772C183.481 42.9311 186.784 40.8246 190.17 40.8246V34.8246ZM190.481 21.8984C195.938 21.8984 200.256 18.3852 202.982 14.7209L198.169 11.1389C195.99 14.0665 193.24 15.8984 190.481 15.8984V21.8984ZM204.431 42.2352C201.035 38.5478 196.172 34.8246 190.17 34.8246V40.8246C193.634 40.8246 197 43.0237 200.018 46.2999L204.431 42.2352ZM177.899 14.6219C180.631 18.3173 184.971 21.8984 190.481 21.8984V15.8984C187.695 15.8984 184.923 14.03 182.724 11.0551L177.899 14.6219Z" fill="white" mask="url(#path-3-outside-2_39_958)"/>
</svg>
