<svg width="117" height="29" viewBox="0 0 117 29" fill="none" xmlns="http://www.w3.org/2000/svg">
<path d="M115.241 26.8732C115.242 26.8732 115.243 26.8732 115.246 26.8732C115.533 26.8732 115.77 26.6395 115.77 26.3554C115.77 26.3454 115.77 26.3356 115.769 26.3256C115.769 25.9372 115.532 25.7516 115.045 25.7516H114.258V27.7852H114.555V26.8987H114.918L114.926 26.9095L115.49 27.7852H115.807L115.2 26.8789L115.241 26.8732ZM114.898 26.6695H114.555V25.9821H114.99C115.214 25.9821 115.47 26.0183 115.47 26.3088C115.47 26.6429 115.212 26.6695 114.897 26.6695H114.898ZM0 4.6376H4.36623V20.347H12.4497V24.327H0V4.6376ZM14.3801 10.977H18.5748V24.3196H14.3801V10.977ZM16.4774 4.34369C17.8121 4.34394 18.9103 5.42879 18.9103 6.74714C18.9103 8.06562 17.8119 9.15059 16.477 9.15059C15.1421 9.15059 14.0437 8.06562 14.0437 6.74714C14.0437 5.42866 15.1425 4.34369 16.4774 4.34369C16.4775 4.34369 16.4772 4.34369 16.4774 4.34369ZM36.1213 4.6346H40.316V16.4015L45.07 10.971H50.2128L44.7073 17.1481L50.0969 24.3252H44.8248L40.372 17.7298H40.3169V24.3243H36.1222L36.1213 4.6346ZM20.9006 10.9783H24.9287V12.8017H24.986C25.8046 11.4163 27.3348 10.586 28.9578 10.6464C33.2114 10.6464 33.9943 13.4107 33.9943 17.0018V24.3187H29.7997V17.8317C29.7997 16.2833 29.7709 14.2928 27.615 14.2928C25.4347 14.2928 25.0983 15.979 25.0983 17.7191V24.3171H20.9036L20.9006 10.9783Z" fill="#403F42"/>
<path d="M59.0453 16.0965C59.0457 16.077 59.046 16.0574 59.046 16.0379C59.046 14.6751 57.9107 13.5537 56.531 13.5537C56.5106 13.5537 56.4903 13.554 56.47 13.5545C54.9549 13.4613 53.6251 14.6017 53.5058 16.0965H59.0453ZM62.5985 22.009C61.1878 23.6987 59.0795 24.6744 56.8624 24.6637C52.6677 24.6637 49.3094 21.8981 49.3094 17.6156C49.3094 13.3331 52.6673 10.5688 56.8624 10.5688C60.783 10.5688 63.2416 13.3309 63.2416 17.6156V18.9147H53.5058C53.7553 20.431 55.112 21.5459 56.667 21.5124C57.8789 21.5049 59.0075 20.8902 59.6605 19.8818L62.5985 22.009ZM71.9849 14.2022C69.8876 14.2022 68.6292 15.5855 68.6292 17.601C68.6292 19.6165 69.8871 21.0008 71.9849 21.0008C74.0826 21.0008 75.3437 19.6198 75.3437 17.601C75.3437 15.582 74.0848 14.2022 71.9849 14.2022ZM79.2053 24.3172H75.3437V22.5477H75.2864C74.3051 23.8513 72.7608 24.6293 71.1162 24.6486C67.0859 24.6486 64.431 21.7755 64.431 17.7127C64.431 13.9814 66.7805 10.555 70.6425 10.555C72.3785 10.555 74.0001 11.0241 74.9513 12.3244H75.0064V4.63333H79.2048L79.2053 24.3172ZM107.523 24.3249H103.328V17.8366C103.328 16.2894 103.3 14.2977 101.147 14.2977C98.962 14.2977 98.6277 15.9833 98.6277 17.7239V24.3244H94.4332V10.9818H98.4599V12.8052H98.5164C99.3363 11.4206 100.866 10.5905 102.489 10.65C106.741 10.65 107.525 13.412 107.525 17.0054L107.523 24.3249ZM89.7002 9.15795C89.7 9.15795 89.7004 9.15795 89.7002 9.15795C88.3649 9.15795 87.2655 8.07272 87.2655 6.75375C87.2655 5.43477 88.3644 4.34942 89.6997 4.34942C91.035 4.34942 92.1337 5.43452 92.1339 6.75325C92.1339 6.753 92.1339 6.75337 92.1339 6.75325C92.1339 8.07197 91.0354 9.15782 89.7002 9.15795ZM91.7975 24.3249H87.5985V10.9818H91.7975V24.3249ZM109.614 0.501929H85.4906C84.3583 0.489297 83.4156 1.3988 83.4017 2.51729V26.4435C83.415 27.5626 84.3576 28.4731 85.4906 28.4611H109.614C110.75 28.4752 111.696 27.5648 111.711 26.4435V2.51566C111.696 1.39479 110.749 0.485419 109.614 0.500177V0.501929ZM114.934 24.8458C113.881 24.8558 113.021 25.7133 113.021 26.7524C113.021 27.7985 113.893 28.6592 114.951 28.6592C116.011 28.6592 116.882 27.7985 116.882 26.7524C116.882 25.7133 116.022 24.8558 114.97 24.8458H114.934ZM114.934 28.4408C114.923 28.4409 114.915 28.4411 114.904 28.4411C113.976 28.4411 113.213 27.6864 113.213 26.7691C113.213 25.852 113.976 25.0972 114.904 25.0972C115.822 25.0972 116.582 25.8348 116.597 26.7413V26.7694C116.616 27.6665 115.886 28.4206 114.978 28.4399H114.934" fill="#403F42"/>
</svg>
