<svg width="123" height="36" viewBox="0 0 123 36" fill="none" xmlns="http://www.w3.org/2000/svg">
<path fill-rule="evenodd" clip-rule="evenodd" d="M0.400024 -3.05176e-05H25.4153V36H0.400024V-3.05176e-05ZM4.00557 32.3758H21.7973V3.62549H4.00557V32.3758Z" fill="white"/>
<path fill-rule="evenodd" clip-rule="evenodd" d="M40.4845 16.1517C38.452 13.268 36.4361 10.4024 34.423 7.16385H34.4084V16.1517H32.6979V3.61991H34.2466C36.2792 6.48337 38.2923 9.3287 40.2867 12.5505H40.3221V3.61991H42.0325V16.1517H40.4845ZM46.0976 11.1917C46.5939 9.54415 47.0938 8.02282 47.5401 6.08875H47.5762C48.0746 8.02282 48.521 9.54484 48.984 11.1917H46.0976ZM46.9154 3.61991L42.6045 16.1517H44.458L45.5423 12.7311H49.3054L50.2849 16.1517H52.6749L48.6987 3.61991H46.9154ZM54.6873 16.1517V5.3009H51.4067V3.61991H60.104V5.3009H56.8261V16.1517H54.6873ZM60.7975 3.61991H62.9217V16.1517H60.7975V3.61991ZM69.5163 14.5739C67.2859 14.5739 66.5022 12.1036 66.5022 9.70451C66.5022 7.39603 67.3928 5.19353 69.5163 5.19353C71.637 5.19353 72.5249 7.39603 72.5249 9.70451C72.5249 12.1036 71.7426 14.5739 69.5163 14.5739ZM69.5163 16.3636C72.7769 16.3636 74.808 13.4472 74.808 9.70381C74.808 6.19612 72.5658 3.40377 69.5163 3.40377C66.4696 3.40377 64.2177 6.19612 64.2177 9.70381C64.2184 13.4479 66.253 16.3636 69.5163 16.3636ZM83.899 16.1517C81.865 13.268 79.8505 10.4024 77.8388 7.16385H77.8214V16.1517H76.1131V3.61991H77.6625C79.6923 6.48337 81.7067 9.3287 83.6997 12.5505H83.7365V3.61991H85.4491V16.1517H83.899ZM89.5121 11.1917C90.0126 9.54415 90.5089 8.02282 90.9573 6.08875H90.9927C91.4918 8.02282 91.9361 9.54484 92.3984 11.1917H89.5121ZM90.334 3.61991L86.021 16.1517H87.8759L88.9602 12.7311H92.7226L93.7028 16.1517H96.0901L92.1145 3.61991H90.334ZM96.7114 3.61991H98.8362V14.4679H103.058V16.1517H96.7114V3.61991ZM40.7171 26.6336V31.8055C39.5751 32.2552 38.3805 32.5752 37.1719 32.5752C33.499 32.5752 31.1826 29.7111 31.1826 26.0228C31.1826 22.6023 33.499 19.614 37.242 19.614C38.3985 19.614 39.5578 20.0456 40.2714 20.5818L39.5758 22.0675C39.0066 21.7126 38.1132 21.408 37.2948 21.408C35.0151 21.408 33.4629 23.2165 33.4629 26.0633C33.4629 29.0327 35.2463 30.7855 37.0824 30.7855C37.6502 30.7855 38.134 30.7172 38.5818 30.4822V26.6336H40.7171ZM48.3669 21.5153H44.7981V24.9505H48.2912V26.6336H44.7981V30.6767H49.0041V32.3619H42.658V19.8295H48.3669V21.5153ZM54.9608 30.7848C52.7305 30.7848 51.9454 28.3167 51.9454 25.9162C51.9454 23.6091 52.8367 21.4073 54.9608 21.4073C57.0802 21.4073 57.9694 23.6091 57.9694 25.9162C57.9694 28.3167 57.1836 30.7848 54.9608 30.7848ZM54.9608 32.5752C58.2207 32.5752 60.2512 29.6574 60.2512 25.9155C60.2512 22.4078 58.0069 19.6133 54.9608 19.6133C51.9093 19.6133 49.6664 22.4078 49.6664 25.9155C49.6657 29.6581 51.6941 32.5752 54.9608 32.5752ZM70.5159 26.6336V31.8055C69.374 32.2552 68.1828 32.5752 66.9694 32.5752C63.2993 32.5752 60.9807 29.7111 60.9807 26.0228C60.9807 22.6023 63.2993 19.614 67.0423 19.614C68.2016 19.614 69.3581 20.0456 70.0696 20.5818L69.374 22.0675C68.8034 21.7126 67.9176 21.408 67.0964 21.408C64.8119 21.408 63.2611 23.2165 63.2611 26.0633C63.2611 29.0327 65.0451 30.7855 66.8812 30.7855C67.4532 30.7855 67.9322 30.7172 68.3793 30.4822V26.6336H70.5159ZM74.6199 21.5153H75.5619C76.8239 21.5153 77.5389 22.246 77.5389 23.5366C77.5389 25.2175 76.5247 25.9684 75.5078 26.0221C75.2933 26.0437 74.7934 26.0619 74.6199 26.0772V21.5153ZM80.0366 32.3619L77.5188 27.1725C78.8912 26.4405 79.6798 24.9505 79.6798 23.4466C79.6798 21.0098 78.1977 19.8295 75.809 19.8295H72.4763V32.3619H74.6199V27.6362H75.5813L77.5917 32.3619H80.0366ZM83.5644 27.4026C84.0621 25.753 84.5612 24.2331 85.0082 22.2997H85.0436C85.5428 24.2331 85.987 25.753 86.4507 27.4026H83.5644ZM84.3828 19.8295L80.0685 32.3619H81.9219L83.0104 28.9414H86.7728L87.7475 32.3619H90.1403L86.1634 19.8295H84.3828ZM94.1491 19.8295H90.8164V32.3619H92.9559V27.6362H93.9159C96.4663 27.6362 98.0185 25.5592 98.0185 23.4466C98.0185 21.0092 96.5378 19.8295 94.1491 19.8295ZM93.8493 26.0228C93.6271 26.043 93.1051 26.0598 92.9559 26.0744V21.5153H93.9159C95.1633 21.5153 95.879 22.246 95.879 23.5366C95.879 25.2175 94.8662 25.9691 93.8493 26.0228ZM107.926 32.3619H105.788V26.331H101.347V32.3619H99.2319V19.8295H101.347V24.6451H105.788V19.865H107.926V32.3619ZM109.974 19.8295H112.1V32.3619H109.974V19.8295ZM121.72 22.1045C121.203 21.7817 120.351 21.4073 119.527 21.4073C117.349 21.4073 115.769 23.2158 115.769 26.0626C115.769 29.032 117.514 30.7848 119.582 30.7848C120.34 30.7812 121.08 30.5638 121.72 30.1573L122.31 31.7163C121.665 32.1632 120.528 32.5752 119.496 32.5752C115.823 32.5752 113.504 29.7111 113.504 26.0228C113.504 22.6023 115.803 19.614 119.527 19.614C120.635 19.614 121.665 20.0826 122.4 20.5818L121.72 22.1045Z" fill="white"/>
</svg>
