<svg width="118" height="28" viewBox="0 0 118 28" fill="none" xmlns="http://www.w3.org/2000/svg">
<g clip-path="url(#clip0_2001_205)">
<path d="M115.541 26.3732C115.542 26.3732 115.544 26.3732 115.546 26.3732C115.834 26.3732 116.07 26.1394 116.07 25.8554C116.07 25.8454 116.07 25.8355 116.069 25.8255C116.069 25.4372 115.832 25.2516 115.345 25.2516H114.558V27.2852H114.855V26.3987H115.218L115.226 26.4095L115.79 27.2852H116.107L115.5 26.3788L115.541 26.3732ZM115.198 26.1695H114.855V25.4821H115.29C115.514 25.4821 115.77 25.5182 115.77 25.8088C115.77 26.1428 115.512 26.1695 115.197 26.1695H115.198ZM0.300049 4.13757H4.66628V19.847H12.7498V23.8269H0.300049V4.13757ZM14.6802 10.4769H18.8748V23.8195H14.6802V10.4769ZM16.7774 3.84366C18.1122 3.84391 19.2104 4.92876 19.2104 6.24711C19.2104 7.56559 18.1119 8.65056 16.777 8.65056C15.4422 8.65056 14.3437 7.56559 14.3437 6.24711C14.3437 4.92863 15.4426 3.84366 16.7774 3.84366C16.7776 3.84366 16.7773 3.84366 16.7774 3.84366ZM36.4214 4.13457H40.6161V15.9014L45.37 10.4709H50.5128L45.0074 16.6481L50.3969 23.8252H45.1249L40.672 17.2298H40.6169V23.8243H36.4223L36.4214 4.13457ZM21.2006 10.4783H25.2288V12.3017H25.286C26.1046 10.9163 27.6349 10.086 29.2578 10.1464C33.5115 10.1464 34.2944 12.9107 34.2944 16.5018V23.8187H30.0997V17.3317C30.0997 15.7832 30.071 13.7928 27.9151 13.7928C25.7348 13.7928 25.3983 15.4789 25.3983 17.219V23.817H21.2037L21.2006 10.4783Z" fill="white"/>
<path d="M59.3454 15.5965C59.3458 15.577 59.346 15.5573 59.346 15.5378C59.346 14.1751 58.2107 13.0537 56.831 13.0537C56.8106 13.0537 56.7904 13.054 56.77 13.0545C55.255 12.9613 53.9252 14.1017 53.8059 15.5965H59.3454ZM62.8986 21.509C61.4879 23.1987 59.3796 24.1743 57.1624 24.1637C52.9678 24.1637 49.6094 21.3981 49.6094 17.1156C49.6094 12.8331 52.9674 10.0688 57.1624 10.0688C61.083 10.0688 63.5417 12.8308 63.5417 17.1156V18.4147H53.8059C54.0553 19.931 55.4121 21.0459 56.967 21.0123C58.1789 21.0048 59.3075 20.3901 59.9605 19.3818L62.8986 21.509ZM72.2849 13.7022C70.1877 13.7022 68.9293 15.0855 68.9293 17.1009C68.9293 19.1164 70.1871 20.5008 72.2849 20.5008C74.3827 20.5008 75.6437 19.1198 75.6437 17.1009C75.6437 15.082 74.3848 13.7022 72.2849 13.7022ZM79.5054 23.8171H75.6437V22.0477H75.5865C74.6052 23.3513 73.0609 24.1293 71.4163 24.1486C67.386 24.1486 64.7311 21.2755 64.7311 17.2126C64.7311 13.4813 67.0806 10.0549 70.9426 10.0549C72.6786 10.0549 74.3001 10.5241 75.2513 11.8244H75.3064V4.1333H79.5049L79.5054 23.8171ZM107.823 23.8249H103.628V17.3366C103.628 15.7893 103.6 13.7976 101.447 13.7976C99.262 13.7976 98.9277 15.4833 98.9277 17.2239V23.8244H94.7332V10.4818H98.76V12.3052H98.8165C99.6363 10.9205 101.166 10.0905 102.79 10.15C107.041 10.15 107.825 12.912 107.825 16.5054L107.823 23.8249ZM90.0003 8.65792C90 8.65792 90.0004 8.65792 90.0003 8.65792C88.6649 8.65792 87.5656 7.57269 87.5656 6.25372C87.5656 4.93474 88.6644 3.84939 89.9998 3.84939C91.335 3.84939 92.4337 4.93449 92.434 6.25322C92.434 6.25297 92.434 6.25334 92.434 6.25322C92.434 7.57194 91.3354 8.65779 90.0003 8.65792ZM92.0976 23.8249H87.8986V10.4818H92.0976V23.8249ZM109.914 0.00189852H85.7907C84.6583 -0.0107334 83.7156 0.898766 83.7018 2.01726V25.9434C83.7151 27.0626 84.6577 27.9731 85.7907 27.961H109.914C111.05 27.9752 111.996 27.0648 112.011 25.9434V2.01563C111.996 0.894763 111.049 -0.0146115 109.914 0.000146609V0.00189852ZM115.234 24.3458C114.181 24.3558 113.322 25.2133 113.322 26.2524C113.322 27.2984 114.193 28.1592 115.251 28.1592C116.311 28.1592 117.182 27.2984 117.182 26.2524C117.182 25.2133 116.323 24.3558 115.27 24.3458H115.234ZM115.234 27.9408C115.223 27.9409 115.215 27.941 115.204 27.941C114.276 27.941 113.513 27.1864 113.513 26.2691C113.513 25.352 114.276 24.5972 115.204 24.5972C116.122 24.5972 116.882 25.3347 116.897 26.2412V26.2694C116.916 27.1665 116.186 27.9205 115.278 27.9399H115.234" fill="white"/>
</g>
<defs>
<clipPath id="clip0_2001_205">
<rect width="117" height="28" fill="white" transform="translate(0.300049 -3.05176e-05)"/>
</clipPath>
</defs>
</svg>
