<svg width="128" height="38" viewBox="0 0 128 38" fill="none" xmlns="http://www.w3.org/2000/svg">
<g clip-path="url(#clip0_2001_196)">
<path d="M19.1829 0.0626221C8.67554 0.0626221 0.157227 8.54318 0.157227 19.0043C0.157227 29.4658 8.67554 37.9457 19.1829 37.9457C29.6914 37.9457 38.2088 29.4658 38.2088 19.0043C38.2088 8.54386 29.6914 0.0635268 19.1827 0.0635268L19.1829 0.0626221ZM27.908 27.3819C27.5672 27.9383 26.8356 28.1148 26.2767 27.7732C21.8097 25.0567 16.1863 24.4414 9.56363 25.9479C8.92545 26.0926 8.28932 25.6945 8.14391 25.0589C7.99783 24.4233 8.3961 23.79 9.03587 23.6452C16.2833 21.9968 22.4999 22.7065 27.5149 25.7579C28.0738 26.0994 28.251 26.8255 27.908 27.3819ZM30.2367 22.2243C29.8073 22.9192 28.894 23.1386 28.1965 22.7111C23.0824 19.5815 15.2868 18.6752 9.23784 20.5032C8.45335 20.7391 7.62478 20.299 7.38668 19.5193C7.15041 18.7383 7.59275 17.9149 8.37588 17.6774C15.2854 15.5901 23.8753 16.6012 29.7482 20.1942C30.4457 20.6217 30.6661 21.531 30.2367 22.2245V22.2243ZM30.4366 16.8536C24.3047 13.2276 14.1879 12.8942 8.33339 14.6632C7.39327 14.9471 6.39908 14.4187 6.11419 13.4827C5.82929 12.5463 6.35955 11.5572 7.30035 11.2726C14.0209 9.24143 25.193 9.63387 32.2528 13.8064C33.1002 14.3061 33.3774 15.3934 32.8753 16.2341C32.3755 17.076 31.2804 17.3535 30.4375 16.8536H30.4366ZM51.9198 17.5485C48.6346 16.7686 48.0508 16.2212 48.0508 15.071C48.0508 13.9844 49.0777 13.2531 50.6067 13.2531C52.088 13.2531 53.5556 13.8084 55.096 14.9516C55.1414 14.9862 55.2005 15 55.2573 14.991C55.3163 14.9824 55.3663 14.9509 55.4004 14.9037L57.0044 12.6526C57.0703 12.5599 57.0521 12.4321 56.9635 12.3613C55.1301 10.8971 53.0672 10.1853 50.6544 10.1853C47.1079 10.1853 44.6293 12.3045 44.6293 15.3366C44.6293 18.5881 46.7671 19.7394 50.4613 20.6281C53.6033 21.3489 54.135 21.9529 54.135 23.0323C54.135 24.2288 53.0626 24.973 51.336 24.973C49.4185 24.973 47.8531 24.3283 46.1037 22.8219C46.0606 22.7835 46.0015 22.7676 45.947 22.7699C45.8879 22.7744 45.8356 22.8015 45.7993 22.8445L43.9999 24.9752C43.925 25.0657 43.9341 25.1969 44.0204 25.2738C46.056 27.0833 48.5597 28.0379 51.2633 28.0379C55.0846 28.0379 57.5542 25.9592 57.5542 22.7405C57.561 20.0246 55.9275 18.5204 51.9267 17.5514L51.9198 17.5485ZM66.2011 14.323C64.5449 14.323 63.1863 14.9726 62.0639 16.3038V14.8055C62.0639 14.6872 61.9685 14.5908 61.8504 14.5908H58.9082C58.7901 14.5908 58.6947 14.6872 58.6947 14.8055V31.4533C58.6947 31.5709 58.7901 31.6682 58.9082 31.6682H61.8504C61.9685 31.6682 62.0639 31.5709 62.0639 31.4533V26.1989C63.1863 27.4498 64.5449 28.0627 66.2011 28.0627C69.2795 28.0627 72.3966 25.7036 72.3966 21.1936C72.4011 16.6826 69.2841 14.3228 66.2034 14.3228L66.2011 14.323ZM68.9751 21.1936C68.9751 23.4892 67.5552 25.0929 65.5195 25.0929C63.5089 25.0929 61.9912 23.4168 61.9912 21.1936C61.9912 18.9701 63.5089 17.2945 65.5195 17.2945C67.5211 17.2943 68.9751 18.9337 68.9751 21.1933V21.1936ZM80.3824 14.323C76.4179 14.323 73.3122 17.3621 73.3122 21.2426C73.3122 25.0815 76.3974 28.0876 80.3347 28.0876C84.3128 28.0876 87.4276 25.0589 87.4276 21.1936C87.4276 17.3413 84.3332 14.3235 80.3824 14.3235V14.323ZM80.3824 25.1155C78.274 25.1155 76.6837 23.4281 76.6837 21.1924C76.6837 18.9466 78.2195 17.3169 80.3347 17.3169C82.4566 17.3169 84.0561 19.0036 84.0561 21.2415C84.0561 23.4869 82.5112 25.1155 80.3824 25.1155ZM95.8927 14.5908H92.6553V11.2961C92.6553 11.1781 92.5598 11.0817 92.4417 11.0817H89.4996C89.3814 11.0817 89.2837 11.1781 89.2837 11.2961V14.5908H87.8706C87.7525 14.5908 87.6571 14.6872 87.6571 14.8055V17.3223C87.6571 17.4404 87.7525 17.537 87.8706 17.537H89.2837V24.0501C89.2837 26.6807 90.5992 28.0152 93.196 28.0152C94.2501 28.0152 95.1248 27.7981 95.9495 27.3321C96.0177 27.2959 96.0586 27.2236 96.0586 27.1467V24.749C96.0586 24.6767 96.02 24.6065 95.9564 24.5681C95.8927 24.5274 95.8132 24.5251 95.7473 24.559C95.1816 24.8418 94.6341 24.973 94.0207 24.973C93.0778 24.973 92.6553 24.5455 92.6553 23.5909V17.5381H95.8927C96.0109 17.5381 96.1063 17.4417 96.1063 17.3234V14.8068C96.1108 14.6885 96.0154 14.5922 95.895 14.5922L95.8927 14.5908ZM107.171 14.6037V14.1991C107.171 13.0086 107.629 12.4778 108.656 12.4778C109.27 12.4778 109.763 12.599 110.315 12.7822C110.383 12.8035 110.453 12.7928 110.508 12.7524C110.565 12.7119 110.597 12.647 110.597 12.5782V10.1105C110.597 10.0161 110.537 9.93267 110.444 9.90485C109.863 9.73226 109.118 9.55515 108 9.55515C105.285 9.55515 103.847 11.0783 103.847 13.9584V14.5782H102.434C102.315 14.5782 102.218 14.6745 102.218 14.7926V17.3223C102.218 17.4404 102.315 17.537 102.434 17.537H103.847V27.5809C103.847 27.7008 103.944 27.7958 104.063 27.7958H107.002C107.123 27.7958 107.218 27.7008 107.218 27.5809V17.5376H109.965L114.173 27.5809C113.695 28.635 113.225 28.8454 112.584 28.8454C112.066 28.8454 111.519 28.6915 110.962 28.3862C110.91 28.359 110.846 28.3545 110.792 28.3704C110.735 28.3907 110.687 28.4314 110.665 28.4857L109.667 30.6639C109.62 30.768 109.661 30.8879 109.76 30.9421C110.801 31.5031 111.739 31.7429 112.9 31.7429C115.072 31.7429 116.274 30.734 117.331 28.0243L122.433 14.8969C122.461 14.8308 122.451 14.7562 122.411 14.6976C122.372 14.6395 122.306 14.6044 122.236 14.6044H119.173C119.08 14.6044 118.998 14.6625 118.969 14.7483L115.831 23.6679L112.396 14.7424C112.364 14.6594 112.285 14.6044 112.196 14.6044H107.171V14.6037ZM100.632 14.5908H97.6898C97.5717 14.5908 97.474 14.6872 97.474 14.8055V27.5809C97.474 27.7008 97.5717 27.7958 97.6898 27.7958H100.632C100.75 27.7958 100.848 27.7008 100.848 27.5809V14.8064C100.848 14.6881 100.752 14.5917 100.632 14.5917V14.5908ZM99.1779 8.77344C98.0124 8.77344 97.0673 9.71258 97.0673 10.8727C97.0673 12.0335 98.0124 12.9738 99.1779 12.9738C100.343 12.9738 101.286 12.0335 101.286 10.8727C101.286 9.71281 100.341 8.77344 99.1779 8.77344ZM124.946 18.6987C123.783 18.6987 122.876 17.7679 122.876 16.6376C122.876 15.5074 123.794 14.566 124.957 14.566C126.121 14.566 127.027 15.4965 127.027 16.6259C127.027 17.7561 126.109 18.6987 124.946 18.6987ZM124.957 14.7709C123.896 14.7709 123.094 15.61 123.094 16.6376C123.094 17.6648 123.892 18.4926 124.946 18.4926C126.007 18.4926 126.809 17.6541 126.809 16.6259C126.809 15.5987 126.012 14.7709 124.957 14.7709ZM125.416 16.8378L126.002 17.6539H125.507L124.98 16.9052H124.528V17.6539H124.114V15.4906H125.082C125.589 15.4906 125.921 15.7478 125.921 16.1807C125.923 16.5354 125.716 16.7521 125.419 16.8378H125.416ZM125.066 15.8618H124.528V16.546H125.066C125.334 16.546 125.496 16.4151 125.496 16.2036C125.496 15.981 125.334 15.8618 125.066 15.8618Z" fill="white"/>
</g>
<defs>
<clipPath id="clip0_2001_196">
<rect width="127" height="38" fill="white" transform="translate(0.0998535 -3.05176e-05)"/>
</clipPath>
</defs>
</svg>
