<svg width="117" height="36" viewBox="0 0 117 36" fill="none" xmlns="http://www.w3.org/2000/svg">
<g clip-path="url(#clip0_2001_183)">
<path d="M61.3341 9.04501C61.3341 10.3423 60.2832 11.3874 58.9786 11.3874C57.674 11.3874 56.623 10.3423 56.623 9.04501C56.623 7.74772 57.6377 6.70267 58.9786 6.70267C60.3194 6.73871 61.3341 7.78375 61.3341 9.04501ZM51.6221 13.7657C51.6221 13.982 51.6221 14.3423 51.6221 14.3423C51.6221 14.3423 50.4987 12.9009 48.107 12.9009C44.1569 12.9009 41.0767 15.8919 41.0767 20.036C41.0767 24.1441 44.1207 27.1711 48.107 27.1711C50.535 27.1711 51.6221 25.6937 51.6221 25.6937V26.3063C51.6221 26.5946 51.8395 26.8108 52.1295 26.8108H55.0648V13.2612C55.0648 13.2612 52.3831 13.2612 52.1295 13.2612C51.8395 13.2612 51.6221 13.5135 51.6221 13.7657ZM51.6221 22.4504C51.0785 23.2432 49.9914 23.9279 48.6868 23.9279C46.3675 23.9279 44.5918 22.4865 44.5918 20.036C44.5918 17.5856 46.3675 16.1441 48.6868 16.1441C49.9551 16.1441 51.1148 16.8648 51.6221 17.6216V22.4504ZM57.2391 13.2612H60.718V26.8108H57.2391V13.2612ZM109.205 12.9009C106.814 12.9009 105.69 14.3423 105.69 14.3423V6.73871H102.211V26.8108C102.211 26.8108 104.893 26.8108 105.147 26.8108C105.437 26.8108 105.654 26.5585 105.654 26.3063V25.6937C105.654 25.6937 106.777 27.1711 109.169 27.1711C113.119 27.1711 116.199 24.1441 116.199 20.036C116.199 15.9279 113.119 12.9009 109.205 12.9009ZM108.626 23.8919C107.285 23.8919 106.234 23.2072 105.69 22.4144V17.5856C106.234 16.8648 107.393 16.1081 108.626 16.1081C110.945 16.1081 112.721 17.5495 112.721 20C112.721 22.4504 110.945 23.8919 108.626 23.8919ZM100.399 18.7747V26.8468H96.9205V19.1711C96.9205 16.9369 96.1957 16.036 94.2388 16.036C93.1879 16.036 92.1007 16.5765 91.4122 17.3693V26.8108H87.9333V13.2612H90.6874C90.9773 13.2612 91.1947 13.5135 91.1947 13.7657V14.3423C92.2094 13.2973 93.5503 12.9009 94.8911 12.9009C96.4131 12.9009 97.6815 13.3333 98.6962 14.1982C99.9283 15.2072 100.399 16.5045 100.399 18.7747ZM79.4897 12.9009C77.0979 12.9009 75.9745 14.3423 75.9745 14.3423V6.73871H72.4956V26.8108C72.4956 26.8108 75.1773 26.8108 75.4309 26.8108C75.7208 26.8108 75.9383 26.5585 75.9383 26.3063V25.6937C75.9383 25.6937 77.0617 27.1711 79.4534 27.1711C83.4034 27.1711 86.4837 24.1441 86.4837 20.036C86.52 15.9279 83.4397 12.9009 79.4897 12.9009ZM78.9098 23.8919C77.569 23.8919 76.5181 23.2072 75.9745 22.4144V17.5856C76.5181 16.8648 77.6777 16.1081 78.9098 16.1081C81.2291 16.1081 83.0048 17.5495 83.0048 20C83.0048 22.4504 81.2291 23.8919 78.9098 23.8919ZM69.4878 12.9009C70.5387 12.9009 71.0823 13.081 71.0823 13.081V16.2883C71.0823 16.2883 68.1832 15.3153 66.3713 17.3693V26.8468H62.8923V13.2612C62.8923 13.2612 65.574 13.2612 65.8277 13.2612C66.1176 13.2612 66.335 13.5135 66.335 13.7657V14.3423C66.9873 13.5856 68.4006 12.9009 69.4878 12.9009ZM33.3578 25.5856C33.1766 25.1531 32.9954 24.6847 32.8142 24.2883C32.5243 23.6396 32.2344 23.027 31.9807 22.4504L31.9445 22.4144C29.444 17.009 26.7624 11.5315 23.9358 6.1261L23.827 5.90988C23.5371 5.36934 23.2472 4.79276 22.9573 4.21619C22.5949 3.56754 22.2325 2.88285 21.6527 2.2342C20.4931 0.792762 18.8261 -3.05176e-05 17.0504 -3.05176e-05C15.2385 -3.05176e-05 13.6077 0.792762 12.4119 2.16213C11.8683 2.81078 11.4697 3.49547 11.1073 4.14411C10.8174 4.72069 10.5275 5.29727 10.2375 5.83781L10.1288 6.05402C7.33845 11.4594 4.62055 16.9369 2.12008 22.3423L2.08384 22.4144C1.83017 22.991 1.54026 23.6036 1.25035 24.2522C1.06916 24.6486 0.887966 25.0811 0.706773 25.5495C0.23567 26.8829 0.090715 28.1441 0.271908 29.4414C0.670534 32.1441 2.48247 34.4144 4.98294 35.4234C5.92514 35.8198 6.90359 36 7.91827 36C8.20818 36 8.57057 35.9639 8.86047 35.9279C10.0564 35.7838 11.2885 35.3874 12.4843 34.7027C13.9701 33.8738 15.3834 32.6847 16.9779 30.9549C18.5724 32.6847 20.022 33.8738 21.4715 34.7027C22.6674 35.3874 23.8995 35.7838 25.0954 35.9279C25.3853 35.9639 25.7477 36 26.0376 36C27.0523 36 28.067 35.8198 28.9729 35.4234C31.5096 34.4144 33.2853 32.1081 33.684 29.4414C33.9739 28.1801 33.8289 26.9189 33.3578 25.5856ZM17.0142 27.4594C15.0573 25.009 13.7889 22.7027 13.3541 20.7567C13.1729 19.9279 13.1366 19.2072 13.2454 18.5585C13.3178 17.982 13.5353 17.4774 13.8252 17.045C14.5137 16.072 15.6733 15.4594 17.0142 15.4594C18.355 15.4594 19.5509 16.036 20.2032 17.045C20.4931 17.4774 20.7105 17.982 20.783 18.5585C20.8917 19.2072 20.8555 19.9639 20.6743 20.7567C20.2394 22.6666 18.9711 24.9729 17.0142 27.4594ZM31.4734 29.1531C31.2197 31.027 29.9514 32.6486 28.1757 33.3693C27.306 33.7297 26.3638 33.8378 25.4215 33.7297C24.5156 33.6216 23.6096 33.3333 22.6674 32.7928C21.3628 32.072 20.0582 30.9549 18.5362 29.2973C20.928 26.3783 22.3775 23.7117 22.9211 21.3333C23.1748 20.2162 23.211 19.2072 23.1023 18.2702C22.9573 17.3693 22.6312 16.5405 22.1238 15.8198C21.0004 14.1982 19.116 13.2612 17.0142 13.2612C14.9123 13.2612 13.0279 14.2342 11.9045 15.8198C11.3972 16.5405 11.071 17.3693 10.9261 18.2702C10.7811 19.2072 10.8174 20.2522 11.1073 21.3333C11.6509 23.7117 13.1366 26.4144 15.4922 29.3333C14.0064 30.991 12.6655 32.1081 11.3609 32.8288C10.4187 33.3693 9.51277 33.6576 8.6068 33.7657C7.62836 33.8738 6.68615 33.7297 5.85266 33.4054C4.07697 32.6847 2.80862 31.063 2.55494 29.1892C2.44623 28.2883 2.51871 27.3874 2.88109 26.3783C2.98981 26.018 3.171 25.6576 3.3522 25.2252C3.60587 24.6486 3.89578 24.036 4.18569 23.4234L4.22192 23.3513C6.72239 17.982 9.40405 12.5045 12.1944 7.17114L12.3032 6.95492C12.5931 6.41438 12.883 5.83781 13.1729 5.29727C13.4628 4.72069 13.7889 4.18015 14.1876 3.71168C14.9486 2.84682 15.9633 2.37835 17.0867 2.37835C18.2101 2.37835 19.2247 2.84682 19.9857 3.71168C20.3844 4.18015 20.7105 4.72069 21.0004 5.29727C21.2903 5.83781 21.5802 6.41438 21.8702 6.95492L21.9789 7.17114C24.733 12.5405 27.4147 18.018 29.9151 23.3874V23.4234C30.2051 24 30.4587 24.6486 30.7486 25.2252C30.9298 25.6576 31.111 26.018 31.2197 26.3783C31.5096 27.3153 31.6184 28.2162 31.4734 29.1531Z" fill="white"/>
</g>
<defs>
<clipPath id="clip0_2001_183">
<rect width="116" height="36" fill="white" transform="translate(0.200073 -3.05176e-05)"/>
</clipPath>
</defs>
</svg>
