<svg width="134" height="32" viewBox="0 0 134 32" fill="none" xmlns="http://www.w3.org/2000/svg">
<g clip-path="url(#clip0_2001_96)">
<path d="M77.6401 17.0289C77.6401 13.8687 76.292 11.0766 71.7326 11.0766C69.3935 11.0766 67.5353 11.7456 66.5278 12.3312L67.2662 14.8665C68.1938 14.2826 69.6739 13.8017 71.0708 13.8017C73.379 13.7984 73.7572 15.1086 73.7572 15.951V16.1538C68.7186 16.1456 65.5335 17.8926 65.5335 21.4502C65.5335 23.624 67.1505 25.6621 69.9771 25.6621C71.7017 25.6621 73.159 24.9637 74.0294 23.8612H74.1142C74.1142 23.8612 74.688 26.2706 77.8618 25.3497C77.7004 24.3405 77.6401 23.2773 77.6401 21.9851V17.0289ZM73.8812 20.3657C73.8812 20.6209 73.86 20.8859 73.785 21.1132C73.4948 22.0865 72.4939 22.9011 71.2485 22.9011C70.1972 22.9011 69.3723 22.304 69.3723 21.0527C69.3723 19.139 71.4783 18.6123 73.8812 18.6254" fill="white"/>
<path d="M0.5 6.77684C0.5 6.77684 3.7911 20.2877 4.31438 22.4763C4.93053 25.0345 6.0341 25.9799 9.21929 25.3502L11.2764 16.9721C11.7964 14.8964 12.1501 13.408 12.486 11.293H12.543C12.7761 13.4292 13.1119 14.8964 13.5373 16.9787C13.5373 16.9787 14.3768 20.785 14.8121 22.7789C15.2359 24.7728 16.4291 26.0307 19.554 25.3502L24.4507 6.77684H20.4978L18.8172 14.8114C18.3722 17.139 17.9679 18.9726 17.6533 21.1056H17.5962C17.3126 18.9955 16.9524 17.2371 16.4894 14.957L14.7485 6.77684H10.6244L8.7661 14.7476C8.2363 17.1815 7.74078 19.1329 7.42942 21.1988H7.37565C7.05454 19.2605 6.61931 16.7922 6.15796 14.4499C6.15796 14.4499 5.0544 8.74295 4.66484 6.77684" fill="white"/>
<path d="M35.4669 17.0289C35.4669 13.8687 34.1155 11.0766 29.5562 11.0766C27.2236 11.0766 25.362 11.7456 24.3547 12.3312L25.093 14.8665C26.0173 14.2826 27.4958 13.8017 28.8977 13.8017C31.2058 13.7984 31.584 15.1086 31.584 15.951V16.1538C26.5455 16.1456 23.3571 17.8926 23.3571 21.4502C23.3571 23.624 24.9806 25.6621 27.7941 25.6621C29.535 25.6621 30.9793 24.9637 31.8498 23.8612H31.9377C31.9377 23.8612 32.5148 26.2706 35.6853 25.3497C35.5223 24.3405 35.4669 23.2773 35.4669 21.9851V17.0289ZM31.7047 20.3657C31.7047 20.6209 31.6835 20.8859 31.6118 21.1132C31.3183 22.0865 30.3175 22.9011 29.0688 22.9011C28.0239 22.9011 27.1959 22.304 27.1959 21.0527C27.1959 19.139 29.3019 18.6123 31.7047 18.6254" fill="white"/>
<path d="M37.5181 6.77684V25.3437H41.2803V6.77684H37.5181Z" fill="white"/>
<path d="M89.1868 6.77684V20.4758C89.1868 22.3667 89.5405 23.6851 90.3017 24.4931C90.9701 25.2014 92.0638 25.6626 93.3663 25.6626C94.4846 25.6626 95.5783 25.4467 96.0951 25.2586L96.0494 22.3094C95.6631 22.3994 95.2213 22.4763 94.6149 22.4763C93.3305 22.4763 92.9066 21.6601 92.9066 19.9622V14.7182H96.1831V11.1703H92.9066V6.77684" fill="white"/>
<path d="M79.4628 11.3988V25.3497H83.3521V18.205C83.3521 17.8206 83.3765 17.4885 83.4369 17.181C83.727 15.6745 84.8664 14.7209 86.5079 14.7209C86.966 14.7209 87.2773 14.7716 87.6229 14.8256V11.1682C87.3327 11.1159 87.1355 11.088 86.7785 11.088C85.3229 11.088 83.6732 12.0155 82.9771 14.0356H82.881V11.3988" fill="white"/>
<path d="M43.4651 11.3988V25.3497H47.2549V17.1614C47.2549 16.777 47.2973 16.3844 47.4326 16.0295C47.7407 15.2002 48.5052 14.24 49.7327 14.24C51.2584 14.24 51.9789 15.5322 51.9789 17.3969V25.3497H55.7591V17.0633C55.7591 16.7018 55.8096 16.2585 55.9155 15.9379C56.2187 14.9974 57.0468 14.24 58.1912 14.24C59.7332 14.24 60.4798 15.5044 60.4798 17.7028V25.3497H64.2566V17.1238C64.2566 12.8023 62.0658 11.088 59.5783 11.088C58.4846 11.088 57.6141 11.3579 56.8316 11.8421C56.1698 12.2494 55.5896 12.8235 55.0695 13.5743H55.0125C54.4143 12.0727 53.0091 11.088 51.1736 11.088C48.8198 11.088 47.7505 12.2805 47.1213 13.2881H47.0642V11.3988" fill="white"/>
<path d="M116.538 10.7727C117.281 10.7727 117.907 10.3834 117.988 9.88286L118.725 1.50809C118.725 0.678786 117.752 -3.05176e-05 116.538 -3.05176e-05C115.317 -3.05176e-05 114.35 0.678786 114.35 1.50809L115.093 9.88286C115.172 10.3834 115.794 10.7727 116.538 10.7727Z" fill="white"/>
<path d="M112.017 13.3932C112.385 12.739 112.364 12.0127 111.966 11.6888L105.087 6.86189C104.372 6.44316 103.301 6.94204 102.688 7.99871C102.077 9.05373 102.2 10.238 102.901 10.6485L110.517 14.1915C111.005 14.3747 111.642 14.0344 112.017 13.3867" fill="white"/>
<path d="M121.057 13.3864C121.447 14.0341 122.084 14.3743 122.559 14.2009L130.174 10.6482C130.882 10.2295 130.988 9.05667 130.389 8.00165C129.778 6.94498 128.701 6.44937 127.987 6.85993L121.106 11.682C120.725 12.0107 120.697 12.7403 121.065 13.3929" fill="white"/>
<path d="M116.538 21.2338C117.281 21.2338 117.907 21.6231 117.988 22.1236L118.725 30.4984C118.725 31.3277 117.752 32 116.538 32C115.317 32 114.35 31.3277 114.35 30.4984L115.093 22.1236C115.172 21.6231 115.794 21.2338 116.538 21.2338Z" fill="white"/>
<path d="M121.057 18.6206C121.447 17.9712 122.084 17.6245 122.559 17.8126L130.174 21.3588C130.882 21.7693 130.988 22.9519 130.389 24.0086C129.778 25.0571 128.701 25.556 127.987 25.1454L121.106 20.3168C120.725 19.9913 120.697 19.2651 121.065 18.6206" fill="white"/>
<path d="M112.017 18.6134C112.385 19.2661 112.364 19.9907 111.966 20.3178L105.087 25.1382C104.372 25.557 103.301 25.0564 102.688 24.0079C102.077 22.9529 102.2 21.7687 102.901 21.3581L110.517 17.8119C111.005 17.6254 111.642 17.9689 112.017 18.6134Z" fill="white"/>
<path d="M132.403 24.4105H132.498C132.626 24.4105 132.678 24.4514 132.693 24.5544C132.721 24.6689 132.736 24.7458 132.763 24.7785H133.008C132.987 24.754 132.959 24.6918 132.944 24.5479C132.916 24.4236 132.853 24.3532 132.763 24.3287V24.3058C132.887 24.278 132.959 24.1946 132.959 24.0915C132.959 23.9983 132.916 23.9312 132.874 23.8887C132.793 23.8494 132.714 23.8184 132.541 23.8184C132.388 23.8184 132.276 23.8315 132.186 23.8527V24.7785H132.403V24.4105ZM132.409 23.9885L132.52 23.9738C132.651 23.9738 132.721 24.0343 132.721 24.1193C132.721 24.2142 132.626 24.2584 132.506 24.2584H132.409V23.9885ZM132.548 23.3604C132.013 23.3604 131.59 23.7791 131.59 24.2927C131.59 24.8194 132.013 25.2382 132.548 25.2382C133.089 25.2382 133.5 24.8194 133.5 24.2927C133.5 23.7791 133.089 23.3604 132.548 23.3604ZM132.548 23.5485C132.959 23.5485 133.264 23.8822 133.264 24.2927C133.264 24.7066 132.959 25.0501 132.548 25.0435C132.137 25.0435 131.826 24.7066 131.826 24.2927C131.826 23.8822 132.137 23.5485 132.541 23.5485" fill="white"/>
</g>
<defs>
<clipPath id="clip0_2001_96">
<rect width="133" height="32" fill="white" transform="translate(0.5 -3.05176e-05)"/>
</clipPath>
</defs>
</svg>
