<svg width="29" height="8" viewBox="0 0 29 8" fill="none" xmlns="http://www.w3.org/2000/svg">
<path d="M0.646447 4.35352C0.451184 4.15826 0.451184 3.84168 0.646447 3.64642L3.82843 0.464436C4.02369 0.269173 4.34027 0.269173 4.53553 0.464436C4.7308 0.659698 4.7308 0.97628 4.53553 1.17154L1.70711 3.99997L4.53553 6.8284C4.7308 7.02366 4.7308 7.34024 4.53553 7.5355C4.34027 7.73077 4.02369 7.73077 3.82843 7.5355L0.646447 4.35352ZM29 4.49997H28V3.49997H29V4.49997ZM26 4.49997H24V3.49997H26V4.49997ZM22 4.49997H20V3.49997H22V4.49997ZM18 4.49997H16V3.49997H18V4.49997ZM14 4.49997H12V3.49997H14V4.49997ZM10 4.49997H8V3.49997H10V4.49997ZM6 4.49997H4V3.49997H6V4.49997ZM2 4.49997H1V3.49997H2V4.49997ZM0.646447 4.35352C0.451184 4.15826 0.451184 3.84168 0.646447 3.64642L3.82843 0.464436C4.02369 0.269173 4.34027 0.269173 4.53553 0.464436C4.7308 0.659698 4.7308 0.97628 4.53553 1.17154L1.70711 3.99997L4.53553 6.8284C4.7308 7.02366 4.7308 7.34024 4.53553 7.5355C4.34027 7.73077 4.02369 7.73077 3.82843 7.5355L0.646447 4.35352ZM29 4.49997H28V3.49997H29V4.49997ZM26 4.49997H24V3.49997H26V4.49997ZM22 4.49997H20V3.49997H22V4.49997ZM18 4.49997H16V3.49997H18V4.49997ZM14 4.49997H12V3.49997H14V4.49997ZM10 4.49997H8V3.49997H10V4.49997ZM6 4.49997H4V3.49997H6V4.49997ZM2 4.49997H1V3.49997H2V4.49997Z" fill="#000B1E"/>
</svg>
