<svg width="23" height="24" viewBox="0 0 23 24" fill="none" xmlns="http://www.w3.org/2000/svg">
<path d="M7.15001 0.218016H1.00001C0.755013 0.218016 0.430013 -0.0819838 4.00001 2.59302L7.15001 0.218016Z" fill="white"/>
<path d="M8 5.218C8 0.873001 8.025 1.108 7.94 0.888C3.97 3.863 4.235 3.718 4 3.718C3.765 3.718 4 3.838 0.06 0.888C3.72529e-09 1.113 0 0.898 0 5.218C0 5.48322 0.105357 5.73757 0.292893 5.92511C0.48043 6.11264 0.734784 6.218 1 6.218H7C7.26522 6.218 7.51957 6.11264 7.70711 5.92511C7.89464 5.73757 8 5.48322 8 5.218ZM18.5 3.913L19.88 3.218L18.5 2.528V3.913Z" fill="white"/>
<path d="M22 0.218018H16C15.7348 0.218018 15.4804 0.323374 15.2929 0.510911C15.1054 0.698447 15 0.952801 15 1.21802V5.21802C15 5.48323 15.1054 5.73759 15.2929 5.92512C15.4804 6.11266 15.7348 6.21802 16 6.21802H22C22.2652 6.21802 22.5196 6.11266 22.7071 5.92512C22.8946 5.73759 23 5.48323 23 5.21802V1.21802C23 0.952801 22.8946 0.698447 22.7071 0.510911C22.5196 0.323374 22.2652 0.218018 22 0.218018ZM20.33 4.11302C18.83 4.85302 18.83 4.90802 18.5 4.90802C18.2348 4.90802 17.9804 4.80266 17.7929 4.61512C17.6054 4.42759 17.5 4.17323 17.5 3.90802C17.5 2.68802 17.36 2.05802 18 1.67802C18.64 1.29802 19.055 1.67802 20.355 2.32302C20.5203 2.40825 20.6585 2.53789 20.7542 2.69736C20.8498 2.85683 20.8992 3.03981 20.8966 3.22576C20.894 3.4117 20.8396 3.59324 20.7395 3.74997C20.6394 3.90671 20.4976 4.03243 20.33 4.11302Z" fill="white"/>
<path d="M19 20.218C19.5523 20.218 20 19.7703 20 19.218C20 18.6657 19.5523 18.218 19 18.218C18.4477 18.218 18 18.6657 18 19.218C18 19.7703 18.4477 20.218 19 20.218Z" fill="white"/>
<path d="M22.535 18.218C22.4427 18.2185 22.3523 18.1915 22.2754 18.1404C22.1985 18.0894 22.1385 18.0166 22.1032 17.9313C22.0678 17.846 22.0585 17.7522 22.0767 17.6616C22.0948 17.5711 22.1395 17.4881 22.205 17.423C22.2914 17.3359 22.3399 17.2182 22.3399 17.0955C22.3399 16.9728 22.2914 16.8551 22.205 16.768L21.45 16.013C21.4076 15.969 21.3567 15.934 21.3004 15.9101C21.2442 15.8862 21.1837 15.8739 21.1225 15.8739C21.0614 15.8739 21.0009 15.8862 20.9446 15.9101C20.8883 15.934 20.8375 15.969 20.795 16.013C20.73 16.0785 20.6469 16.1232 20.5564 16.1414C20.4659 16.1595 20.372 16.1503 20.2867 16.1149C20.2015 16.0795 20.1287 16.0195 20.0776 15.9426C20.0266 15.8657 19.9995 15.7753 20 15.683C20 15.5597 19.951 15.4414 19.8638 15.3542C19.7766 15.267 19.6583 15.218 19.535 15.218H18.465C18.3417 15.218 18.2234 15.267 18.1362 15.3542C18.049 15.4414 18 15.5597 18 15.683C18.0005 15.7753 17.9735 15.8657 17.9224 15.9426C17.8714 16.0195 17.7986 16.0795 17.7133 16.1149C17.628 16.1503 17.5342 16.1595 17.4436 16.1414C17.3531 16.1232 17.2701 16.0785 17.205 16.013C17.1626 15.969 17.1117 15.934 17.0554 15.9101C16.9992 15.8862 16.9387 15.8739 16.8775 15.8739C16.8164 15.8739 16.7559 15.8862 16.6996 15.9101C16.6433 15.934 16.5925 15.969 16.55 16.013L15.795 16.768C15.7516 16.8108 15.7172 16.8618 15.6937 16.918C15.6702 16.9742 15.658 17.0346 15.658 17.0955C15.658 17.1565 15.6702 17.2168 15.6937 17.273C15.7172 17.3292 15.7516 17.3802 15.795 17.423C15.8582 17.4889 15.9007 17.5718 15.9176 17.6616C15.9344 17.7513 15.9247 17.844 15.8897 17.9283C15.8547 18.0126 15.7959 18.0849 15.7205 18.1364C15.6451 18.1878 15.5563 18.2162 15.465 18.218C15.3417 18.218 15.2234 18.267 15.1362 18.3542C15.049 18.4414 15 18.5597 15 18.683V19.753C15 19.8763 15.049 19.9946 15.1362 20.0818C15.2234 20.169 15.3417 20.218 15.465 20.218C15.5573 20.2175 15.6477 20.2446 15.7246 20.2956C15.8015 20.3467 15.8615 20.4195 15.8969 20.5047C15.9323 20.59 15.9415 20.6839 15.9234 20.7744C15.9052 20.8649 15.8605 20.948 15.795 21.013C15.751 21.0555 15.716 21.1063 15.6921 21.1626C15.6682 21.2189 15.6559 21.2794 15.6559 21.3405C15.6559 21.4017 15.6682 21.4622 15.6921 21.5184C15.716 21.5747 15.751 21.6256 15.795 21.668L16.55 22.423C16.5925 22.467 16.6433 22.502 16.6996 22.5259C16.7559 22.5498 16.8164 22.5622 16.8775 22.5622C16.9387 22.5622 16.9992 22.5498 17.0554 22.5259C17.1117 22.502 17.1626 22.467 17.205 22.423C17.2701 22.3575 17.3531 22.3128 17.4436 22.2947C17.5342 22.2765 17.628 22.2858 17.7133 22.3211C17.7986 22.3565 17.8714 22.4165 17.9224 22.4934C17.9735 22.5703 18.0005 22.6607 18 22.753C18 22.8763 18.049 22.9946 18.1362 23.0818C18.2234 23.169 18.3417 23.218 18.465 23.218H19.535C19.6583 23.218 19.7766 23.169 19.8638 23.0818C19.951 22.9946 20 22.8763 20 22.753C19.9995 22.6607 20.0266 22.5703 20.0776 22.4934C20.1287 22.4165 20.2015 22.3565 20.2867 22.3211C20.372 22.2858 20.4659 22.2765 20.5564 22.2947C20.6469 22.3128 20.73 22.3575 20.795 22.423C20.8375 22.467 20.8883 22.502 20.9446 22.5259C21.0009 22.5498 21.0614 22.5622 21.1225 22.5622C21.1837 22.5622 21.2442 22.5498 21.3004 22.5259C21.3567 22.502 21.4076 22.467 21.45 22.423L22.205 21.668C22.249 21.6256 22.284 21.5747 22.3079 21.5184C22.3318 21.4622 22.3442 21.4017 22.3442 21.3405C22.3442 21.2794 22.3318 21.2189 22.3079 21.1626C22.284 21.1063 22.249 21.0555 22.205 21.013C22.1395 20.948 22.0948 20.8649 22.0767 20.7744C22.0585 20.6839 22.0678 20.59 22.1032 20.5047C22.1385 20.4195 22.1985 20.3467 22.2754 20.2956C22.3523 20.2446 22.4427 20.2175 22.535 20.218C22.6583 20.218 22.7766 20.169 22.8638 20.0818C22.951 19.9946 23 19.8763 23 19.753V18.683C23 18.5597 22.951 18.4414 22.8638 18.3542C22.7766 18.267 22.6583 18.218 22.535 18.218ZM19 21.218C18.6045 21.218 18.2178 21.1007 17.8889 20.881C17.56 20.6612 17.3036 20.3488 17.1523 19.9834C17.0009 19.6179 16.9613 19.2158 17.0385 18.8278C17.1156 18.4399 17.3061 18.0835 17.5858 17.8038C17.8655 17.5241 18.2219 17.3336 18.6098 17.2564C18.9978 17.1793 19.3999 17.2189 19.7654 17.3703C20.1308 17.5216 20.4432 17.778 20.663 18.1069C20.8827 18.4358 21 18.8225 21 19.218C21 19.7485 20.7893 20.2572 20.4142 20.6322C20.0392 21.0073 19.5305 21.218 19 21.218ZM3.21002 15.503L1.44002 17.268C1.15912 17.5493 1.00134 17.9305 1.00134 18.328C1.00134 18.7255 1.15912 19.1068 1.44002 19.388L2.85502 20.803C3.13627 21.0839 3.51752 21.2417 3.91502 21.2417C4.31252 21.2417 4.69377 21.0839 4.97502 20.803L6.74502 19.038L3.21002 15.503ZM7.09502 20.098L5.68502 21.513L7.09502 22.923C7.28718 23.0804 7.53103 23.1606 7.77908 23.1481C8.02713 23.1355 8.26164 23.0311 8.43696 22.8552C8.61227 22.6792 8.71583 22.4444 8.72749 22.1963C8.73915 21.9482 8.65806 21.7046 8.50002 21.513L7.09502 20.098ZM3.79002 14.668L7.57502 18.453L13.815 15.498L6.74502 8.42802L3.79002 14.668ZM9.76002 10.033L12.21 12.483C12.301 12.1438 12.3011 11.7866 12.2103 11.4474C12.1195 11.1081 11.9409 10.7988 11.6926 10.5505C11.4442 10.3021 11.1349 10.1236 10.7956 10.0327C10.4564 9.9419 10.0992 9.942 9.76002 10.033ZM13.105 9.63802C13.38 9.63802 13.39 9.55802 14.52 8.42802C14.6142 8.33453 14.6673 8.20747 14.6678 8.07479C14.6683 7.9421 14.616 7.81467 14.5225 7.72052C14.429 7.62637 14.302 7.57321 14.1693 7.57274C14.0366 7.57227 13.9092 7.62453 13.815 7.71802L12.755 8.77802C12.6831 8.84737 12.6335 8.93669 12.6128 9.03445C12.5921 9.13222 12.6012 9.23394 12.6389 9.3265C12.6766 9.41906 12.7411 9.49822 12.8242 9.55374C12.9073 9.60927 13.0051 9.63862 13.105 9.63802ZM11.5 8.21802V6.71802C11.5 6.58541 11.4473 6.45823 11.3536 6.36446C11.2598 6.2707 11.1326 6.21802 11 6.21802C10.8674 6.21802 10.7402 6.2707 10.6465 6.36446C10.5527 6.45823 10.5 6.58541 10.5 6.71802V8.21802C10.5 8.35063 10.5527 8.4778 10.6465 8.57157C10.7402 8.66534 10.8674 8.71802 11 8.71802C11.1326 8.71802 11.2598 8.66534 11.3536 8.57157C11.4473 8.4778 11.5 8.35063 11.5 8.21802ZM15.5 10.718H14C13.8674 10.718 13.7402 10.7707 13.6465 10.8645C13.5527 10.9582 13.5 11.0854 13.5 11.218C13.5 11.3506 13.5527 11.4778 13.6465 11.5716C13.7402 11.6653 13.8674 11.718 14 11.718H15.5C15.6326 11.718 15.7598 11.6653 15.8536 11.5716C15.9473 11.4778 16 11.3506 16 11.218C16 11.0854 15.9473 10.9582 15.8536 10.8645C15.7598 10.7707 15.6326 10.718 15.5 10.718Z" fill="white"/>
</svg>
