<svg width="36" height="36" viewBox="0 0 36 36" fill="none" xmlns="http://www.w3.org/2000/svg">
<rect x="0.5" y="0.5" width="35" height="35" rx="11.5" stroke="#A46AFD"/>
<g clip-path="url(#clip0_2007_2052)">
<path d="M15.6703 20.2532L15.389 24.2085C15.7914 24.2085 15.9656 24.0357 16.1746 23.8282L18.0609 22.0255L21.9695 24.8878C22.6863 25.2873 23.1913 25.077 23.3847 24.2284L25.9503 12.2065L25.951 12.2058C26.1784 11.1462 25.5678 10.7318 24.8694 10.9918L9.78897 16.7654C8.75976 17.1649 8.77534 17.7386 9.61401 17.9986L13.4695 19.1978L22.4249 13.5942C22.8464 13.3151 23.2296 13.4695 22.9144 13.7486L15.6703 20.2532Z" fill="#A46AFD"/>
</g>
<defs>
<clipPath id="clip0_2007_2052">
<rect width="17" height="17" fill="white" transform="translate(9 9.5)"/>
</clipPath>
</defs>
</svg>
