<svg width="36" height="36" viewBox="0 0 36 36" fill="none" xmlns="http://www.w3.org/2000/svg">
<rect x="0.5" y="0.5" width="35" height="35" rx="11.5" stroke="white"/>
<g clip-path="url(#clip0_34_1332)">
<path d="M15.6704 20.2531L15.3892 24.2084C15.7915 24.2084 15.9658 24.0356 16.1747 23.828L18.061 22.0253L21.9696 24.8877C22.6864 25.2872 23.1915 25.0768 23.3848 24.2283L25.9504 12.2064L25.9511 12.2057C26.1785 11.146 25.5679 10.7317 24.8695 10.9916L9.78909 16.7653C8.75988 17.1648 8.77546 17.7385 9.61413 17.9985L13.4696 19.1977L22.425 13.594C22.8465 13.315 23.2297 13.4694 22.9145 13.7485L15.6704 20.2531Z" fill="white"/>
</g>
<defs>
<clipPath id="clip0_34_1332">
<rect width="17" height="17" fill="white" transform="translate(9 9.5)"/>
</clipPath>
</defs>
</svg>
